<svg xmlns="http://www.w3.org/2000/svg" version="1.1" xmlns:xlink="http://www.w3.org/1999/xlink" xmlns:svgjs="http://svgjs.dev/svgjs" width="100%" height="100%" viewBox="0 0 1000 600"><rect width="1000" height="600" x="0" y="0" fill="#262223"/><g><circle r="166.66666666666666" cx="441.9142862955729" cy="464.1365836039496" fill="#ddc6b6" transform="matrix(0.45413646697350935,0,0,0.45413646697350935,0,89.21866075798596)"/><path d="M447.3779054614929 539.136606803223L447.3779054614929 539.136606803223Q431.805252605556 539.136606803223 418.24857169532197 533.7606816146819Q404.69189078508794 528.3847564261407 394.4659461329718 518.3048966976262Q384.26921846557593 508.1958199843914 378.4842554909502 494.52227113527607Q372.6992925163245 480.8487222861607 372.6992925163245 464.45799385805446L372.6992925163245 464.45799385805446Q372.6992925163245 447.39527478138064 378.3966045367892 433.51720703922297Q384.0646995725336 419.6391392970653 393.9400404080058 409.76379846159307Q403.8445982281983 399.85924064140056 416.55398658154274 394.5125324375798Q429.29259191960745 389.1366072490387 443.1706596617651 389.1366072490387L443.1706596617651 389.1366072490387Q457.6915010677701 389.1366072490387 468.7355212920556 394.07427766677483Q479.77954151634106 399.0119480845109 487.46360849778836 407.3387887298055Q495.14767547923566 415.6364123903798 499.5594401720058 426.1545268896993L499.5594401720058 426.1545268896993L489.6548823518132 422.9990925399034L489.6548823518132 392.08752270579225L509.43478100747797 392.08752270579225L509.43478100747797 438.980783181925L495.5567132653203 440.26633050961965Q491.14494857255016 430.3617726894271 484.5126930410348 422.7945736468611Q477.8804375095195 415.22737460429516 468.53100239901323 411.0201288045673Q459.1523503037867 406.81288300483953 446.326094011561 406.81288300483953L446.326094011561 406.81288300483953Q436.2462342830465 406.81288300483953 427.07210108086224 410.6987419726437Q417.92718486339834 414.5846009404479 410.769023606917 422.0641490288528Q403.64007933515603 429.51448013253747 399.5204844895892 440.1494625707383Q395.4301066287427 450.78444500893914 395.4301066287427 464.22425798029184L395.4301066287427 464.22425798029184Q395.4301066287427 476.6414764864329 399.4328335354282 487.0719400315914Q403.40634345739335 497.47318659202955 410.47685375971366 505.15725357347685Q417.5181470773137 512.8413205549241 426.98445012670123 516.9316984157706Q436.45075317608877 521.0220762766171 447.3779054614929 521.0220762766171L447.3779054614929 521.0220762766171Q456.63968961783814 521.0220762766171 464.11923770624315 518.9184533767532Q471.5695688099278 516.8148304768893 477.55905067759585 513.0458394479665Q483.5777495299842 509.24763143432335 488.398552008839 504.30996101658724Q493.2485714724141 499.3722905988512 497.0175625013369 493.6749785783864L497.0175625013369 493.6749785783864L511.1293661212572 505.47864040540054Q506.48386555072443 512.4030657841192 500.28986479001406 518.5094155906686Q494.0958640293037 524.615765397218 486.2072781548141 529.3489169219117Q478.31869228032446 534.0820684466055 468.61865335317424 536.594729132554Q458.94783141074436 539.136606803223 447.3779054614929 539.136606803223Z " fill="#262223" transform="matrix(0.45413646697350935,0,0,0.45413646697350935,0,89.21866075798596)"/><path d="M766.3898466208815 538.7286797037093L766.3898466208815 538.7286797037093Q750.8595446032862 538.7286797037093 737.3397319650794 533.3673746920067Q723.8199193268725 528.006069680304 713.6217847937423 517.9536227833614Q703.4527877878497 507.8720383591813 697.683557394822 494.23567561202447Q691.9143270017939 480.5993128648676 691.9143270017939 464.25316008462187L691.9143270017939 464.25316008462187Q691.9143270017939 447.23684417791327 697.5961448131093 433.3965187400938Q703.2488250971871 419.5561933022743 713.0973093034671 409.70770909599435Q722.9749310369846 399.8300873624769 735.6497553853035 394.4979198780117Q748.3537172608599 389.136614866309 762.1940426986794 389.136614866309L762.1940426986794 389.136614866309Q776.6753937357241 389.136614866309 787.6893790315048 394.060856969449Q798.7033643272853 398.985099072589 806.3665339907516 407.28929433528066Q814.0297036542179 415.5643520707348 818.4294702670827 426.05386187624015L818.4294702670827 426.05386187624015L808.5518485335654 422.90700893458853L808.5518485335654 392.079505117298L828.2779544733626 392.079505117298L828.2779544733626 438.84523633350904L814.4376290355433 440.1272875319597Q810.0378624226785 430.2496657984422 803.4236437397626 422.70304624392594Q796.8094250568467 415.1564266894096 787.4854163408422 410.9606227672075Q778.1322700975999 406.7648188450054 765.3408956403309 406.7648188450054L765.3408956403309 406.7648188450054Q755.2884487433885 406.7648188450054 746.1392651908088 410.64010996759487Q737.0192191654667 414.5154010901843 729.8805249922756 421.97460806298807Q722.770968346322 429.4046775085543 718.6625770058324 440.01073742300963Q714.5833231925803 450.616797337465 714.5833231925803 464.02005986672174L714.5833231925803 464.02005986672174Q714.5833231925803 476.4035089426655 718.5751644241199 486.80560616645823Q722.5378681284219 497.1785658630135 729.5891497199004 504.8417355264798Q736.6112937841415 512.5049051899462 746.0518526090962 516.5841590031982Q755.4924114340511 520.6634128164503 766.3898466208815 520.6634128164503L766.3898466208815 520.6634128164503Q775.6264427551737 520.6634128164503 783.0856497279774 518.5655108553492Q790.5157191735436 516.4676088942482 796.4889122572342 512.7088678806088Q802.4912428681621 508.9209893397319 807.2989348623521 503.9967472365919Q812.1357643837796 499.0725051334519 815.8945053974189 493.39068732213656L815.8945053974189 493.39068732213656L829.9679310531385 505.1622483260925Q825.3350642223736 512.0678422813835 819.1579084480206 518.157585474024Q812.9807526736674 524.2473286666645 805.1136203195385 528.967608079142Q797.2464879654096 533.6878874916194 787.5728289225547 536.1937148340456Q777.9283074069373 538.7286797037093 766.3898466208815 538.7286797037093ZM887.8641976740803 531.3860228398557L867.0891407537322 531.3860228398557L867.0891407537322 392.079505117298L887.8641976740803 392.079505117298L887.8641976740803 531.3860228398557ZM910.5331938648667 535.9897521433829L845.061170162171 535.9897521433829L845.061170162171 519.4104991452372L910.5331938648667 519.4104991452372L910.5331938648667 535.9897521433829ZM886.611284002867 408.65875811544385L845.061170162171 408.65875811544385L845.061170162171 392.079505117298L886.611284002867 392.079505117298L886.611284002867 408.65875811544385ZM976.1800427309872 538.932642394372L976.1800427309872 538.932642394372Q965.8944956161445 538.932642394372 956.1625615188145 535.6692393437704Q946.4014898942473 532.4349738204062 938.5343575401182 526.1412679371031Q930.6672251859893 519.8475620538 926.0343583552244 510.49441581055765Q921.4306290516972 501.17040709455296 921.4306290516972 488.99092070927185L921.4306290516972 488.99092070927185Q921.4306290516972 475.9955835613403 926.1509084641746 465.9139991371602Q930.8711878766519 455.86155224021763 938.854870339731 448.92682075768914Q946.8094152755725 441.99208927516065 956.6870370090899 438.3207608432338Q966.53552121537 434.6494324113069 977.0250310208751 434.6494324113069L977.0250310208751 434.6494324113069Q989.6124427874815 434.6494324113069 999.2569643030988 438.55386106113394Q1008.9014858187163 442.4291521837234 1014.4667535210815 449.4512962479644Q1020.0320212234469 456.47344031220547 1020.0320212234469 465.9139991371602L1020.0320212234469 465.9139991371602Q1020.0320212234469 475.55852065277753 1014.2627908304189 482.08532675398084Q1008.4935604373909 488.58299532794666 999.2569643030988 491.8172608513108Q990.0203681688067 495.0806639019124 979.7639585812015 495.0806639019124L979.7639585812015 495.0806639019124Q966.9434465966951 495.0806639019124 956.7744495908025 492.05036106921085Q946.6054525849097 488.99092070927185 936.9609310692924 484.59115409640714L936.9609310692924 484.59115409640714L936.7569683786298 472.0037423298008Q947.858366256123 476.8405718512282 957.2115124993652 478.70537359442915Q966.53552121537 480.5993128648676 975.3350544410994 480.5993128648676L975.3350544410994 480.5993128648676Q982.0658232329652 480.5993128648676 987.3979907174303 478.9384738123293Q992.7592957291331 477.2484972325534 996.1101113614473 473.8976816002392Q999.4609269937614 470.54686596792504 999.4609269937614 465.9139991371602L999.4609269937614 465.9139991371602Q999.4609269937614 459.21236787253184 993.604284019021 455.1039765320423Q987.718503517043 451.0247227187902 978.4819073827509 451.0247227187902L978.4819073827509 451.0247227187902Q971.5763134274598 451.0247227187902 964.9620947445442 453.64710017016654Q958.3478760616283 456.2694776215429 953.015708577163 461.10630714297025Q947.6544035654604 465.9139991371602 944.3910005148587 472.73218051073866Q941.1567349914944 479.55036188431706 941.1567349914944 488.379032637284L941.1567349914944 488.379032637284Q941.1567349914944 498.6354422248892 946.1975272035845 506.09464919769295Q951.2091818884371 513.5538561704967 959.3094144604661 517.4291472930861Q967.3805095052578 521.3044384156756 976.8210683302125 521.3044384156756L976.8210683302125 521.3044384156756Q988.5634918069309 521.3044384156756 997.4795751416104 517.4291472930861Q1006.39565847629 513.5538561704967 1013.3303899588184 507.6680756685187L1013.3303899588184 507.6680756685187L1022.1299231845478 521.3044384156756Q1016.2441426825699 526.3452306277657 1009.4259613089914 530.3370718593052Q1002.607779935413 534.2997755636072 994.3327221999589 536.6307777426084Q986.0576644645048 538.932642394372 976.1800427309872 538.932642394372ZM1135.4166290840049 537.6797287231589L1135.4166290840049 537.6797287231589Q1129.3268858913643 537.6797287231589 1124.5191938971743 534.6202883632197Q1119.682364375747 531.5899855305183 1116.856024233708 525.7042050285404Q1114.0296840916692 519.8475620538 1114.0296840916692 511.65991690005825L1114.0296840916692 511.65991690005825L1114.0296840916692 472.8487306196887Q1114.0296840916692 465.30211106517237 1110.445768241455 460.7857943433576Q1106.890989918478 456.2694776215429 1101.1217595254502 454.17157566044176Q1095.3525291324222 452.07367369934076 1088.2138349592312 452.07367369934076L1088.2138349592312 452.07367369934076Q1078.7732761342763 452.07367369934076 1068.9247919279965 454.579501041767Q1059.047170194479 457.1144659114308 1048.9947232975364 461.3102698336329L1048.9947232975364 461.3102698336329L1044.5658191574341 445.1389422168122Q1055.9003172528273 440.3312502226223 1067.6427407295457 437.5049100805834Q1079.4143017335018 434.6494324113069 1090.7196623016573 434.6494324113069L1090.7196623016573 434.6494324113069Q1104.1520623581519 434.6494324113069 1113.7965838737691 439.07833655140917Q1123.4702429166239 443.4781031642739 1128.5984477104264 452.07367369934076Q1133.7266525042292 460.6692442344076 1133.7266525042292 473.6937189095766L1133.7266525042292 473.6937189095766L1133.7266525042292 509.96994032028243Q1133.7266525042292 515.4186579136976 1135.6205917746674 517.8370726744113Q1137.514531045106 520.2554874351251 1140.8653466774201 520.2554874351251L1140.8653466774201 520.2554874351251Q1142.7592859478586 520.2554874351251 1144.4492625276346 519.6144618358998Q1146.1101015801728 519.0025737639119 1147.363015251386 518.5655108553492L1147.363015251386 518.5655108553492L1151.7919193914881 533.4839248009569Q1149.460917212487 534.9408011628325 1145.1777007085723 536.3102649429957Q1140.8653466774201 537.6797287231589 1135.4166290840049 537.6797287231589ZM1073.3245585408613 538.932642394372L1073.3245585408613 538.932642394372Q1064.087962406569 538.932642394372 1056.10427994349 535.3487265441577Q1048.1497350076486 531.7939482211809 1043.429455595171 524.7718041569399Q1038.7091761826937 517.7496600926988 1038.7091761826937 507.46411297785613L1038.7091761826937 507.46411297785613Q1038.7091761826937 496.97460317235084 1044.6823692663843 489.7193588902097Q1050.655562350075 482.4932521353061 1060.0961211750296 478.82192370337924Q1069.5366799999842 475.15059527145235 1080.2301524961522 475.15059527145235L1080.2301524961522 475.15059527145235Q1092.6136015720958 475.15059527145235 1101.8501977063881 477.9769354134913Q1111.0867938406802 480.8032755555302 1120.93527804696 484.9990794777323L1120.93527804696 484.9990794777323L1120.93527804696 498.4314795342266Q1109.833880169467 493.6237875400367 1100.6846966168875 492.05036106921085Q1091.5646505915454 490.47693459838507 1083.8140683463664 490.47693459838507L1083.8140683463664 490.47693459838507Q1077.3163997724007 490.243834380485 1071.7511320700353 492.1377736509234Q1066.18586436767 494.0317129213619 1062.6310860446933 497.5864912443387Q1059.047170194479 501.17040709455296 1059.047170194479 506.8230873786308L1059.047170194479 506.8230873786308Q1059.047170194479 511.65991690005825 1061.7860977548055 515.0107325323725Q1064.4958877878942 518.3615481646866 1069.0122045097091 519.9349746355124Q1073.5285212315237 521.5084011063382 1078.5693134436137 521.5084011063382L1078.5693134436137 521.5084011063382Q1084.018031037029 521.5084011063382 1090.9527625195576 519.3230865635246Q1097.8583564748485 517.1086344934736 1105.5215261383148 512.5049051899462Q1113.1846958017813 507.8720383591813 1120.93527804696 500.9664444038904L1120.93527804696 500.9664444038904L1120.527352665635 515.214695223035Q1113.388658492444 522.3533893962261 1105.5215261383148 527.7146944079288Q1097.654393784186 533.046861892394 1089.5832987393944 535.9897521433829Q1081.5122036946027 538.932642394372 1073.3245585408613 538.932642394372ZM1284.7755937035051 535.9897521433829L1264.2336370010573 535.9897521433829L1264.2336370010573 478.50141090376655Q1264.2336370010573 472.8487306196887 1262.7476231119442 468.3324138978739Q1261.2907467500684 463.81609717605915 1258.4644066080295 460.58183165269503Q1255.6380664659905 457.3184286020934 1251.529675125501 455.6284520223175Q1247.4504213122489 453.96761296977917 1242.0017037188336 453.96761296977917L1242.0017037188336 453.96761296977917Q1236.3198859075183 453.96761296977917 1230.5506555144902 456.1529275125928Q1224.7814251214625 458.3673795826439 1218.924782146722 462.6797336137961Q1213.039001644744 466.9629501177107 1207.269771251716 472.93614320140125Q1201.5005408586883 478.9384738123293 1195.6147603567103 486.4850933668456L1195.6147603567103 486.4850933668456L1195.6147603567103 469.7018776780371Q1202.3455291485761 461.5142325242955 1208.726647613592 455.0165639503297Q1215.1369036058452 448.51889537636396 1221.5471595980982 443.8860285455991Q1227.928278063114 439.2822992420718 1234.7464594366925 436.9804345903081Q1241.564640810271 434.6494324113069 1249.1112603647873 434.6494324113069L1249.1112603647873 434.6494324113069Q1257.7359684270916 434.6494324113069 1264.32104958277 437.27180986268326Q1270.9352682656856 439.8941873140596 1275.4515849875004 445.37204243471234Q1279.9679017093154 450.8207600281276 1282.386316470029 458.89185507291916Q1284.7755937035051 466.9629501177107 1284.7755937035051 477.8895228317787L1284.7755937035051 477.8895228317787L1284.7755937035051 535.9897521433829ZM1221.634572179811 535.9897521433829L1160.5914526172176 535.9897521433829L1160.5914526172176 519.4104991452372L1221.634572179811 519.4104991452372L1221.634572179811 535.9897521433829ZM1203.5984428197892 535.9897521433829L1182.8233858994413 535.9897521433829L1182.8233858994413 437.18439728097076L1203.5984428197892 437.18439728097076L1203.5984428197892 535.9897521433829ZM1199.1986762069246 453.7636502791166L1160.5914526172176 453.7636502791166L1160.5914526172176 437.18439728097076L1199.1986762069246 437.18439728097076L1199.1986762069246 453.7636502791166ZM1304.29773695264 535.9897521433829L1245.9644074231355 535.9897521433829L1245.9644074231355 519.4104991452372L1304.29773695264 519.4104991452372L1304.29773695264 535.9897521433829ZM1453.8898017900406 538.7286797037093L1453.8898017900406 538.7286797037093Q1438.3594997724451 538.7286797037093 1424.810549607001 533.3673746920067Q1411.290736968794 528.006069680304 1401.1217399629013 517.9536227833614Q1390.9527429570087 507.8720383591813 1385.1835125639807 494.23567561202447Q1379.4142821709531 480.5993128648676 1379.4142821709531 464.25316008462187L1379.4142821709531 464.25316008462187Q1379.4142821709531 447.23684417791327 1385.0669624550308 433.3965187400938Q1390.7196427391086 419.5561933022743 1400.597264472626 409.70770909599435Q1410.445748678906 399.8300873624769 1423.1497105544624 394.4979198780117Q1435.8245349027814 389.136614866309 1449.6939978678386 389.136614866309L1449.6939978678386 389.136614866309Q1464.1462113776456 389.136614866309 1475.1601966734263 394.060856969449Q1486.1741819692068 398.985099072589 1493.837351632673 407.28929433528066Q1501.5005212961394 415.5643520707348 1505.9002879090042 426.05386187624015L1505.9002879090042 426.05386187624015L1496.051803702724 422.90700893458853L1496.051803702724 392.079505117298L1515.7779096425218 392.079505117298L1515.7779096425218 438.84523633350904L1501.9084466774648 440.1272875319597Q1497.5086800645997 430.2496657984422 1490.894461381684 422.70304624392594Q1484.3093802260057 415.1564266894096 1474.9562339827637 410.9606227672075Q1465.6322252667587 406.7648188450054 1452.84085080949 406.7648188450054L1452.84085080949 406.7648188450054Q1442.75926638531 406.7648188450054 1433.6392203599678 410.64010996759487Q1424.5191743346256 414.5154010901843 1417.3804801614347 421.97460806298807Q1410.2417859882435 429.4046775085543 1406.1625321749914 440.01073742300963Q1402.0541408345018 450.616797337465 1402.0541408345018 464.02005986672174L1402.0541408345018 464.02005986672174Q1402.0541408345018 476.4035089426655 1406.0459820660415 486.80560616645823Q1410.0378232975809 497.1785658630135 1417.059967361822 504.8417355264798Q1424.082111426063 512.5049051899462 1433.5226702510179 516.5841590031982Q1442.9632290759725 520.6634128164503 1453.8898017900406 520.6634128164503L1453.8898017900406 520.6634128164503Q1463.0972603970952 520.6634128164503 1470.5564673698989 518.5655108553492Q1478.0156743427026 516.4676088942482 1483.9888674263932 512.7088678806088Q1489.9620605100836 508.9209893397319 1494.798890031511 503.9967472365919Q1499.606582025701 499.0725051334519 1503.3944605665781 493.39068732213656L1503.3944605665781 493.39068732213656L1517.43874869506 505.1622483260925Q1512.8350193915328 512.0678422813835 1506.628726089942 518.157585474024Q1500.4515703155892 524.2473286666645 1492.5844379614598 528.967608079142Q1484.717305607331 533.6878874916194 1475.0727840917136 536.1937148340456Q1465.4282625760964 538.7286797037093 1453.8898017900406 538.7286797037093ZM1575.3350153160015 531.3860228398557L1554.5890959228911 531.3860228398557L1554.5890959228911 392.079505117298L1575.3350153160015 392.079505117298L1575.3350153160015 531.3860228398557ZM1598.004011506788 535.9897521433829L1532.5611253313302 535.9897521433829L1532.5611253313302 519.4104991452372L1598.004011506788 519.4104991452372L1598.004011506788 535.9897521433829ZM1574.0821016447885 408.65875811544385L1532.5611253313302 408.65875811544385L1532.5611253313302 392.079505117298L1574.0821016447885 392.079505117298L1574.0821016447885 408.65875811544385ZM1650.0436351529893 531.3860228398557L1629.2685782326414 531.3860228398557L1629.2685782326414 437.18439728097076L1650.0436351529893 437.18439728097076L1650.0436351529893 531.3860228398557ZM1672.4795311258756 535.9897521433829L1607.0366449504177 535.9897521433829L1607.0366449504177 519.4104991452372L1672.4795311258756 519.4104991452372L1672.4795311258756 535.9897521433829ZM1645.2068056315618 453.7636502791166L1607.0366449504177 453.7636502791166L1607.0366449504177 437.18439728097076L1645.2068056315618 437.18439728097076L1645.2068056315618 453.7636502791166ZM1637.0191604778204 415.5643520707348L1637.0191604778204 415.5643520707348Q1630.5214919038544 415.5643520707348 1625.801212491377 412.00957374775805Q1621.0809330788998 408.4256578975437 1621.0809330788998 403.1809029947911L1621.0809330788998 403.1809029947911Q1621.0809330788998 397.3242600200506 1625.801212491377 393.6529315881238Q1630.5214919038544 389.9816031561969 1637.0191604778204 389.9816031561969L1637.0191604778204 389.9816031561969Q1644.361817341674 389.9816031561969 1648.9946841724388 393.6529315881238Q1653.5984134759663 397.3242600200506 1653.5984134759663 403.1809029947911L1653.5984134759663 403.1809029947911Q1653.5984134759663 408.4256578975437 1648.9946841724388 412.00957374775805Q1644.361817341674 415.5643520707348 1637.0191604778204 415.5643520707348ZM1736.6695036301205 539.1366050850346L1736.6695036301205 539.1366050850346Q1726.1799938246152 539.1366050850346 1716.6520224179478 535.4652766531078Q1707.094913484043 531.7939482211809 1699.4317438205767 524.9757668476025Q1691.7685741571102 518.157585474024 1687.3688075442458 508.3965138494566Q1682.969040931381 498.6354422248892 1682.969040931381 486.8930187481708L1682.969040931381 486.8930187481708Q1682.969040931381 475.55852065277753 1686.8443320539704 466.03054924611024Q1690.71962317656 456.47344031220547 1697.654354659088 449.4512962479644Q1704.5890861416167 442.4291521837234 1713.592582058009 438.55386106113394Q1722.6252155016384 434.6494324113069 1732.6776623985809 434.6494324113069L1732.6776623985809 434.6494324113069Q1742.759246822761 434.6494324113069 1749.8979409959522 437.708872771246Q1757.0366351691434 440.7391756039475 1762.3688026536086 446.3044433063128Q1767.730107665311 451.8697110086781 1771.4888486789507 459.8242559445196L1771.4888486789507 459.8242559445196L1764.9911801049846 458.1634168919813L1764.9911801049846 437.18439728097076L1779.8804565233547 437.18439728097076L1779.8804565233547 471.7997796391382L1771.0809232976255 472.411667711126Q1767.730107665311 465.7100364464976 1763.0098282528336 461.10630714297025Q1758.2895488403562 456.47344031220547 1752.1998056477157 454.17157566044176Q1746.1100624550752 451.8697110086781 1738.3594802098962 451.8697110086781L1738.3594802098962 451.8697110086781Q1731.0168233460424 451.8697110086781 1724.810530044452 454.28812576939185Q1718.6333742700988 456.67740300286806 1714.117057548284 461.3102698336329Q1709.6007408264693 465.9139991371602 1706.978363375093 472.411667711126Q1704.3559859237166 478.9384738123293 1704.3559859237166 486.68905605750814L1704.3559859237166 486.68905605750814Q1704.3559859237166 497.1785658630135 1709.192815445144 504.92914810819235Q1714.0296449665714 512.7088678806088 1721.6636771028004 516.9920843845234Q1729.3268467662667 521.3044384156756 1737.9224173013338 521.5084011063382L1737.9224173013338 521.5084011063382Q1749.0529527060642 521.7123637970008 1757.1240477508557 517.4291472930861Q1765.1951427956471 513.1167932619339 1772.1298742781757 506.6191246879682L1772.1298742781757 506.6191246879682L1781.3664704124678 520.0515247444625Q1772.7708998774012 528.006069680304 1761.7569145816208 533.5713373826693Q1750.7429292858403 539.1366050850346 1736.6695036301205 539.1366050850346ZM1870.7312664499257 499.68439320543973L1870.7312664499257 499.68439320543973Q1862.7475839868464 499.68439320543973 1855.638027340893 498.227516843564Q1848.4993331677017 496.77064048168825 1841.885114484786 494.4396383026871Q1835.27089580187 492.1377736509234 1828.9771899185669 489.63194630849716L1828.9771899185669 489.63194630849716L1828.9771899185669 476.1995462520029Q1836.3198467824207 479.14243650299187 1842.9340654653367 481.03637577343034Q1849.5482841482524 482.90117751663126 1855.4049271229926 483.6587532248066Q1861.2907076249705 484.38719140574455 1866.3314998370608 484.38719140574455L1866.3314998370608 484.38719140574455Q1873.2370937923517 484.1832287150819 1879.1228742943297 482.28928944464343Q1885.0086547963076 480.395350174205 1888.6799832282343 476.52005905161553Q1892.3513116601614 472.6447679290261 1892.3513116601614 466.9629501177107L1892.3513116601614 466.9629501177107Q1892.3513116601614 459.8242559445196 1887.1939693391212 455.86155224021763Q1882.0657645453186 451.8697110086781 1873.0331311016892 451.8697110086781L1873.0331311016892 451.8697110086781Q1866.9433879090486 451.8697110086781 1859.5133184634822 454.49208846005445Q1852.0541114906785 457.1144659114308 1844.3035292455 461.8347453239082Q1836.5238094730832 466.5550247363855 1828.9771899185669 473.25665600101394L1828.9771899185669 473.25665600101394L1829.4142528271298 459.00840518186925Q1836.5238094730832 451.8697110086781 1844.3909418272121 446.4209934152629Q1852.258074181341 440.94313829461015 1860.8827822436458 437.79628535295853Q1869.4783527787124 434.6494324113069 1878.2778860044416 434.6494324113069L1878.2778860044416 434.6494324113069Q1887.7184448293963 434.6494324113069 1895.9060899831381 438.23334826152126Q1904.09373513688 441.78812658449806 1909.01797724002 448.81027064873905Q1913.9422193431599 455.86155224021763 1913.7382566524973 466.3510620457229L1913.7382566524973 466.3510620457229Q1913.7382566524973 474.30560698156444 1909.9503781116202 480.51190028315506Q1906.191637097981 486.68905605750814 1900.1018939053404 491.00141008866035Q1894.0121507126998 495.284626592575 1886.3489810492335 497.4990786626261Q1878.7149489130045 499.68439320543973 1870.7312664499257 499.68439320543973ZM1855.4049271229926 535.9897521433829L1792.467868289961 535.9897521433829L1792.467868289961 519.4104991452372L1855.4049271229926 519.4104991452372L1855.4049271229926 535.9897521433829ZM1834.4259075119824 531.3860228398557L1814.4958388815223 531.3860228398557L1814.4958388815223 392.079505117298L1834.4259075119824 392.079505117298L1834.4259075119824 531.3860228398557ZM1833.172993840769 408.65875811544385L1792.467868289961 408.65875811544385L1792.467868289961 392.079505117298L1833.172993840769 392.079505117298L1833.172993840769 408.65875811544385ZM1906.8035251699687 538.932642394372L1906.8035251699687 538.932642394372Q1896.9550409636888 538.932642394372 1889.2918713002225 533.6878874916194Q1881.6287016367562 528.4431325888668 1876.8210096425662 518.5655108553492Q1871.9841801211385 508.7170266490693 1870.527303759263 494.6727385205872L1870.527303759263 494.6727385205872L1885.4165801776328 494.6727385205872Q1887.3105194480715 503.88019712764185 1890.5447849714353 509.8825277385699Q1893.8081880220373 515.8557208222603 1898.324504743852 518.7986110732493Q1902.8408214656667 521.7123637970008 1908.2895390590818 521.945464014901L1908.2895390590818 521.945464014901Q1912.2813802906214 521.945464014901 1915.7196085046482 521.100475725013Q1919.1869742459123 520.2554874351251 1922.3338271875639 518.5655108553492L1922.3338271875639 518.5655108553492L1926.7335938004287 533.4839248009569Q1922.7708900961268 535.9897521433829 1917.6135477750865 537.4466285052588Q1912.485342981284 538.932642394372 1906.8035251699687 538.932642394372Z " fill="#ddc6b6" transform="matrix(0.45413646697350935,0,0,0.45413646697350935,0,89.21866075798596)"/></g></svg>